<svg width="48" height="18" viewBox="0 0 48 18" fill="none" xmlns="http://www.w3.org/2000/svg">
<path d="M0.52 17V0.199999H7.6C9.392 0.199999 10.968 0.551999 12.328 1.256C13.704 1.96 14.768 2.944 15.52 4.208C16.288 5.472 16.672 6.936 16.672 8.6C16.672 10.264 16.288 11.728 15.52 12.992C14.768 14.256 13.704 15.24 12.328 15.944C10.968 16.648 9.392 17 7.6 17H0.52ZM2.92 14.912H7.456C8.848 14.912 10.048 14.648 11.056 14.12C12.08 13.592 12.872 12.856 13.432 11.912C13.992 10.952 14.272 9.848 14.272 8.6C14.272 7.336 13.992 6.232 13.432 5.288C12.872 4.344 12.08 3.608 11.056 3.08C10.048 2.552 8.848 2.288 7.456 2.288H2.92V14.912ZM25.2441 17.192C23.9641 17.192 22.7401 17 21.5721 16.616C20.4041 16.216 19.4841 15.704 18.8121 15.08L19.7001 13.208C20.3401 13.768 21.1561 14.232 22.1481 14.6C23.1401 14.968 24.1721 15.152 25.2441 15.152C26.2201 15.152 27.0121 15.04 27.6201 14.816C28.2281 14.592 28.6761 14.288 28.9641 13.904C29.2521 13.504 29.3961 13.056 29.3961 12.56C29.3961 11.984 29.2041 11.52 28.8201 11.168C28.4521 10.816 27.9641 10.536 27.3561 10.328C26.7641 10.104 26.1081 9.912 25.3881 9.752C24.6681 9.592 23.9401 9.408 23.2041 9.2C22.4841 8.976 21.8201 8.696 21.2121 8.36C20.6201 8.024 20.1401 7.576 19.7721 7.016C19.4041 6.44 19.2201 5.704 19.2201 4.808C19.2201 3.944 19.4441 3.152 19.8921 2.432C20.3561 1.696 21.0601 1.112 22.0041 0.68C22.9641 0.232 24.1801 0.0079999 25.6521 0.0079999C26.6281 0.0079999 27.5961 0.136 28.5561 0.391999C29.5161 0.647999 30.3481 1.016 31.0521 1.496L30.2601 3.416C29.5401 2.936 28.7801 2.592 27.9801 2.384C27.1801 2.16 26.4041 2.048 25.6521 2.048C24.7081 2.048 23.9321 2.168 23.3241 2.408C22.7161 2.648 22.2681 2.968 21.9801 3.368C21.7081 3.768 21.5721 4.216 21.5721 4.712C21.5721 5.304 21.7561 5.776 22.1241 6.128C22.5081 6.48 22.9961 6.76 23.5881 6.968C24.1961 7.176 24.8601 7.368 25.5801 7.544C26.3001 7.704 27.0201 7.888 27.7401 8.096C28.4761 8.304 29.1401 8.576 29.7321 8.912C30.3401 9.248 30.8281 9.696 31.1961 10.256C31.5641 10.816 31.7481 11.536 31.7481 12.416C31.7481 13.264 31.5161 14.056 31.0521 14.792C30.5881 15.512 29.8681 16.096 28.8921 16.544C27.9321 16.976 26.7161 17.192 25.2441 17.192ZM37.4144 8.144H46.0784V10.208H37.4144V8.144ZM37.6544 17H35.2544V0.199999H47.1104V2.288H37.6544V17Z" fill="url(#paint0_linear_3_14)"/>
<defs>
<linearGradient id="paint0_linear_3_14" x1="34.4437" y1="-28.0288" x2="82.1582" y2="17.5464" gradientUnits="userSpaceOnUse">
<stop stop-color="white"/>
<stop offset="1" stop-color="white" stop-opacity="0"/>
</linearGradient>
</defs>
</svg>
